<svg width="761" height="183" viewBox="0 0 761 183" fill="none" xmlns="http://www.w3.org/2000/svg">
<path d="M146.784 68.68V86.856H176.096V103.752H146.784V123.464H179.936V141H124.896V51.144H179.936V68.68H146.784ZM216.034 120.52L231.522 69.576H254.818L229.474 141H202.466L177.122 69.576H200.546L216.034 120.52ZM321.119 104.136C321.119 106.184 320.991 108.317 320.735 110.536H271.199C271.54 114.973 272.948 118.387 275.423 120.776C277.983 123.08 281.098 124.232 284.767 124.232C290.228 124.232 294.026 121.928 296.159 117.32H319.455C318.26 122.013 316.084 126.237 312.927 129.992C309.855 133.747 305.972 136.691 301.279 138.824C296.586 140.957 291.338 142.024 285.535 142.024C278.538 142.024 272.308 140.531 266.847 137.544C261.386 134.557 257.119 130.291 254.047 124.744C250.975 119.197 249.439 112.712 249.439 105.288C249.439 97.864 250.932 91.3787 253.919 85.832C256.991 80.2853 261.258 76.0187 266.719 73.032C272.18 70.0453 278.452 68.552 285.535 68.552C292.447 68.552 298.591 70.0027 303.967 72.904C309.343 75.8053 313.524 79.944 316.511 85.32C319.583 90.696 321.119 96.968 321.119 104.136ZM298.719 98.376C298.719 94.6213 297.439 91.6347 294.879 89.416C292.319 87.1973 289.119 86.088 285.279 86.088C281.61 86.088 278.495 87.1547 275.935 89.288C273.46 91.4213 271.924 94.4507 271.327 98.376H298.719ZM365.946 68.808C374.309 68.808 380.965 71.5387 385.914 77C390.949 82.376 393.466 89.8 393.466 99.272V141H371.706V102.216C371.706 97.4373 370.469 93.7253 367.994 91.08C365.519 88.4347 362.191 87.112 358.01 87.112C353.829 87.112 350.501 88.4347 348.026 91.08C345.551 93.7253 344.314 97.4373 344.314 102.216V141H322.426V69.576H344.314V79.048C346.533 75.8907 349.519 73.416 353.274 71.624C357.029 69.7467 361.253 68.808 365.946 68.808ZM438.244 122.44V141H427.108C419.172 141 412.985 139.08 408.548 135.24C404.111 131.315 401.892 124.957 401.892 116.168V87.752H393.188V69.576H401.892V52.168H423.78V69.576H438.116V87.752H423.78V116.424C423.78 118.557 424.292 120.093 425.316 121.032C426.34 121.971 428.047 122.44 430.436 122.44H438.244ZM473.86 51.144C483.332 51.144 491.609 53.0213 498.692 56.776C505.775 60.5307 511.236 65.8213 515.076 72.648C519.001 79.3893 520.964 87.1973 520.964 96.072C520.964 104.861 519.001 112.669 515.076 119.496C511.236 126.323 505.732 131.613 498.564 135.368C491.481 139.123 483.247 141 473.86 141H440.196V51.144H473.86ZM472.452 122.056C480.729 122.056 487.172 119.795 491.78 115.272C496.388 110.749 498.692 104.349 498.692 96.072C498.692 87.7947 496.388 81.352 491.78 76.744C487.172 72.136 480.729 69.832 472.452 69.832H462.084V122.056H472.452ZM590.284 104.136C590.284 106.184 590.156 108.317 589.9 110.536H540.364C540.705 114.973 542.113 118.387 544.588 120.776C547.148 123.08 550.263 124.232 553.932 124.232C559.393 124.232 563.191 121.928 565.324 117.32H588.62C587.425 122.013 585.249 126.237 582.092 129.992C579.02 133.747 575.137 136.691 570.444 138.824C565.751 140.957 560.503 142.024 554.7 142.024C547.703 142.024 541.473 140.531 536.012 137.544C530.551 134.557 526.284 130.291 523.212 124.744C520.14 119.197 518.604 112.712 518.604 105.288C518.604 97.864 520.097 91.3787 523.084 85.832C526.156 80.2853 530.423 76.0187 535.884 73.032C541.345 70.0453 547.617 68.552 554.7 68.552C561.612 68.552 567.756 70.0027 573.132 72.904C578.508 75.8053 582.689 79.944 585.676 85.32C588.748 90.696 590.284 96.968 590.284 104.136ZM567.884 98.376C567.884 94.6213 566.604 91.6347 564.044 89.416C561.484 87.1973 558.284 86.088 554.444 86.088C550.775 86.088 547.66 87.1547 545.1 89.288C542.625 91.4213 541.089 94.4507 540.492 98.376H567.884ZM587.239 105.288C587.239 97.864 588.732 91.3787 591.719 85.832C594.791 80.2853 599.015 76.0187 604.391 73.032C609.852 70.0453 616.082 68.552 623.079 68.552C632.039 68.552 639.506 70.8987 645.479 75.592C651.538 80.2853 655.506 86.8987 657.383 95.432H634.087C632.124 89.9707 628.327 87.24 622.695 87.24C618.684 87.24 615.484 88.8187 613.095 91.976C610.706 95.048 609.511 99.4853 609.511 105.288C609.511 111.091 610.706 115.571 613.095 118.728C615.484 121.8 618.684 123.336 622.695 123.336C628.327 123.336 632.124 120.605 634.087 115.144H657.383C655.506 123.507 651.538 130.077 645.479 134.856C639.42 139.635 631.954 142.024 623.079 142.024C616.082 142.024 609.852 140.531 604.391 137.544C599.015 134.557 594.791 130.291 591.719 124.744C588.732 119.197 587.239 112.712 587.239 105.288ZM702.499 141L680.739 111.048V141H658.851V46.28H680.739V98.632L702.371 69.576H729.379L699.683 105.416L729.635 141H702.499Z" fill="#F5F5F5"/>
<rect y="43" width="105" height="105" rx="18" fill="#028647"/>
<path d="M26.9584 118.882L64.5417 118.917C66.8309 118.917 68.8809 117.789 70.1109 116.047L85.0417 95L70.1109 73.9533C68.8809 72.2108 66.8309 71.0833 64.5417 71.0833L26.9584 71.1175L43.495 95L26.9584 118.882Z" fill="white"/>
</svg>
