<svg width="749" height="183" viewBox="0 0 749 183" fill="none" xmlns="http://www.w3.org/2000/svg">
<path d="M134.784 68.68V86.856H164.096V103.752H134.784V123.464H167.936V141H112.896V51.144H167.936V68.68H134.784ZM204.034 120.52L219.522 69.576H242.818L217.474 141H190.466L165.122 69.576H188.546L204.034 120.52ZM309.119 104.136C309.119 106.184 308.991 108.317 308.735 110.536H259.199C259.54 114.973 260.948 118.387 263.423 120.776C265.983 123.08 269.098 124.232 272.767 124.232C278.228 124.232 282.026 121.928 284.159 117.32H307.455C306.26 122.013 304.084 126.237 300.927 129.992C297.855 133.747 293.972 136.691 289.279 138.824C284.586 140.957 279.338 142.024 273.535 142.024C266.538 142.024 260.308 140.531 254.847 137.544C249.386 134.557 245.119 130.291 242.047 124.744C238.975 119.197 237.439 112.712 237.439 105.288C237.439 97.864 238.932 91.3787 241.919 85.832C244.991 80.2853 249.258 76.0187 254.719 73.032C260.18 70.0453 266.452 68.552 273.535 68.552C280.447 68.552 286.591 70.0027 291.967 72.904C297.343 75.8053 301.524 79.944 304.511 85.32C307.583 90.696 309.119 96.968 309.119 104.136ZM286.719 98.376C286.719 94.6213 285.439 91.6347 282.879 89.416C280.319 87.1973 277.119 86.088 273.279 86.088C269.61 86.088 266.495 87.1547 263.935 89.288C261.46 91.4213 259.924 94.4507 259.327 98.376H286.719ZM353.946 68.808C362.309 68.808 368.965 71.5387 373.914 77C378.949 82.376 381.466 89.8 381.466 99.272V141H359.706V102.216C359.706 97.4373 358.469 93.7253 355.994 91.08C353.519 88.4347 350.191 87.112 346.01 87.112C341.829 87.112 338.501 88.4347 336.026 91.08C333.551 93.7253 332.314 97.4373 332.314 102.216V141H310.426V69.576H332.314V79.048C334.533 75.8907 337.519 73.416 341.274 71.624C345.029 69.7467 349.253 68.808 353.946 68.808ZM426.244 122.44V141H415.108C407.172 141 400.985 139.08 396.548 135.24C392.111 131.315 389.892 124.957 389.892 116.168V87.752H381.188V69.576H389.892V52.168H411.78V69.576H426.116V87.752H411.78V116.424C411.78 118.557 412.292 120.093 413.316 121.032C414.34 121.971 416.047 122.44 418.436 122.44H426.244ZM461.86 51.144C471.332 51.144 479.609 53.0213 486.692 56.776C493.775 60.5307 499.236 65.8213 503.076 72.648C507.001 79.3893 508.964 87.1973 508.964 96.072C508.964 104.861 507.001 112.669 503.076 119.496C499.236 126.323 493.732 131.613 486.564 135.368C479.481 139.123 471.247 141 461.86 141H428.196V51.144H461.86ZM460.452 122.056C468.729 122.056 475.172 119.795 479.78 115.272C484.388 110.749 486.692 104.349 486.692 96.072C486.692 87.7947 484.388 81.352 479.78 76.744C475.172 72.136 468.729 69.832 460.452 69.832H450.084V122.056H460.452ZM578.284 104.136C578.284 106.184 578.156 108.317 577.9 110.536H528.364C528.705 114.973 530.113 118.387 532.588 120.776C535.148 123.08 538.263 124.232 541.932 124.232C547.393 124.232 551.191 121.928 553.324 117.32H576.62C575.425 122.013 573.249 126.237 570.092 129.992C567.02 133.747 563.137 136.691 558.444 138.824C553.751 140.957 548.503 142.024 542.7 142.024C535.703 142.024 529.473 140.531 524.012 137.544C518.551 134.557 514.284 130.291 511.212 124.744C508.14 119.197 506.604 112.712 506.604 105.288C506.604 97.864 508.097 91.3787 511.084 85.832C514.156 80.2853 518.423 76.0187 523.884 73.032C529.345 70.0453 535.617 68.552 542.7 68.552C549.612 68.552 555.756 70.0027 561.132 72.904C566.508 75.8053 570.689 79.944 573.676 85.32C576.748 90.696 578.284 96.968 578.284 104.136ZM555.884 98.376C555.884 94.6213 554.604 91.6347 552.044 89.416C549.484 87.1973 546.284 86.088 542.444 86.088C538.775 86.088 535.66 87.1547 533.1 89.288C530.625 91.4213 529.089 94.4507 528.492 98.376H555.884ZM575.239 105.288C575.239 97.864 576.732 91.3787 579.719 85.832C582.791 80.2853 587.015 76.0187 592.391 73.032C597.852 70.0453 604.082 68.552 611.079 68.552C620.039 68.552 627.506 70.8987 633.479 75.592C639.538 80.2853 643.506 86.8987 645.383 95.432H622.087C620.124 89.9707 616.327 87.24 610.695 87.24C606.684 87.24 603.484 88.8187 601.095 91.976C598.706 95.048 597.511 99.4853 597.511 105.288C597.511 111.091 598.706 115.571 601.095 118.728C603.484 121.8 606.684 123.336 610.695 123.336C616.327 123.336 620.124 120.605 622.087 115.144H645.383C643.506 123.507 639.538 130.077 633.479 134.856C627.42 139.635 619.954 142.024 611.079 142.024C604.082 142.024 597.852 140.531 592.391 137.544C587.015 134.557 582.791 130.291 579.719 124.744C576.732 119.197 575.239 112.712 575.239 105.288ZM690.499 141L668.739 111.048V141H646.851V46.28H668.739V98.632L690.371 69.576H717.379L687.683 105.416L717.635 141H690.499Z" fill="black"/>
<rect y="40" width="105" height="105" rx="18" fill="#028647"/>
<path d="M26.9584 115.882L64.5417 115.917C66.8309 115.917 68.8809 114.789 70.1109 113.047L85.0417 92L70.1109 70.9533C68.8809 69.2108 66.8309 68.0833 64.5417 68.0833L26.9584 68.1175L43.495 92L26.9584 115.882Z" fill="white"/>
</svg>
